solid Darkroom Timer
facet normal -3.470727978520493e-16 1.0 -1.1894332636517302e-31
  outer loop
    vertex 113.68914299999997 82.20000000000005 1.1999999999999837
    vertex 178.68914299999992 82.20000000000007 2.39999999999997
    vertex 178.68914299999992 82.20000000000007 1.199999999999978
  endloop
endfacet
facet normal -3.470727978520493e-16 1.0 -1.1894332636517302e-31
  outer loop
    vertex 178.68914299999992 82.20000000000007 2.39999999999997
    vertex 113.68914299999997 82.20000000000005 1.1999999999999837
    vertex 113.68914299999997 82.20000000000005 2.399999999999976
  endloop
endfacet
facet normal -1.0 0.0 0.0
  outer loop
    vertex 178.68914299999992 83.40000000000003 12.399999999999963
    vertex 178.68914299999992 82.20000000000007 2.39999999999997
    vertex 178.68914299999992 82.20000000000007 12.399999999999963
  endloop
endfacet
facet normal -1.0 0.0 0.0
  outer loop
    vertex 178.68914299999992 82.20000000000007 2.39999999999997
    vertex 178.68914299999992 83.40000000000003 12.399999999999963
    vertex 178.68914299999992 82.20000000000007 1.199999999999978
  endloop
endfacet
facet normal -1.0 0.0 0.0
  outer loop
    vertex 178.68914299999992 82.20000000000007 1.199999999999978
    vertex 178.68914299999992 83.40000000000003 12.399999999999963
    vertex 178.68914299999992 83.40000000000003 1.199999999999978
  endloop
endfacet
facet normal -1.0 0.0 0.0
  outer loop
    vertex 113.68914299999997 82.20000000000005 2.399999999999976
    vertex 113.68914299999997 79.20000000000007 1.1999999999999837
    vertex 113.68914299999997 79.20000000000007 2.399999999999976
  endloop
endfacet
facet normal -1.0 0.0 0.0
  outer loop
    vertex 113.68914299999997 79.20000000000007 1.1999999999999837
    vertex 113.68914299999997 82.20000000000005 2.399999999999976
    vertex 113.68914299999997 82.20000000000005 1.1999999999999837
  endloop
endfacet
facet normal 7.417206879338014e-17 1.5093740739205099e-18 1.0
  outer loop
    vertex 159.13914299999993 33.900000000000084 2.39999999999997
    vertex 163.0084026079882 44.99413334214128 2.3999999999999475
    vertex 162.88914299999993 45.900000000000105 2.3999999999999475
  endloop
endfacet
facet normal 7.417206879338014e-17 1.5093740739205099e-18 1.0
  outer loop
    vertex 163.0084026079882 44.99413334214128 2.3999999999999475
    vertex 159.13914299999993 33.900000000000084 2.39999999999997
    vertex 163.35805408675435 44.1500000000001 2.3999999999999475
  endloop
endfacet
facet normal 7.417206879338014e-17 1.5093740739205099e-18 1.0
  outer loop
    vertex 163.35805408675435 44.1500000000001 2.3999999999999475
    vertex 159.13914299999993 33.900000000000084 2.39999999999997
    vertex 163.914269265847 43.42512626584716 2.3999999999999475
  endloop
endfacet
facet normal 7.417206879338014e-17 1.5093740739205099e-18 1.0
  outer loop
    vertex 163.914269265847 43.42512626584716 2.3999999999999475
    vertex 159.13914299999993 33.900000000000084 2.39999999999997
    vertex 173.63914299999996 33.900000000000084 2.3999999999999644
  endloop
endfacet
facet normal 7.417206879338014e-17 1.5093740739205099e-18 1.0
  outer loop
    vertex 163.914269265847 43.42512626584716 2.3999999999999475
    vertex 173.63914299999996 33.900000000000084 2.3999999999999644
    vertex 164.6391429999999 42.868911086754565 2.3999999999999475
  endloop
endfacet
facet normal 7.417206879338014e-17 1.5093740739205099e-18 1.0
  outer loop
    vertex 164.6391429999999 42.868911086754565 2.3999999999999475
    vertex 173.63914299999996 33.900000000000084 2.3999999999999644
    vertex 165.48327634214107 42.51925960798834 2.3999999999999475
  endloop
endfacet
facet normal 7.417206879338014e-17 1.5093740739205099e-18 1.0
  outer loop
    vertex 165.48327634214107 42.51925960798834 2.3999999999999475
    vertex 173.63914299999996 33.900000000000084 2.3999999999999644
    vertex 166.3891429999999 42.40000000000009 2.3999999999999475
  endloop
endfacet
facet normal 7.417206879338014e-17 1.5093740739205099e-18 1.0
  outer loop
    vertex 166.3891429999999 42.40000000000009 2.3999999999999475
    vertex 173.63914299999996 33.900000000000084 2.3999999999999644
    vertex 167.2950096578587 42.51925960798834 2.3999999999999475
  endloop
endfacet
facet normal 7.417206879338014e-17 1.5093740739205099e-18 1.0
  outer loop
    vertex 167.2950096578587 42.51925960798834 2.3999999999999475
    vertex 173.63914299999996 33.900000000000084 2.3999999999999644
    vertex 168.1391429999999 42.868911086754565 2.3999999999999475
  endloop
endfacet
facet normal 7.417206879338014e-17 1.5093740739205099e-18 1.0
  outer loop
    vertex 168.1391429999999 42.868911086754565 2.3999999999999475
    vertex 173.63914299999996 33.900000000000084 2.3999999999999644
    vertex 168.8640167341529 43.42512626584716 2.3999999999999475
  endloop
endfacet
facet normal 7.417206879338014e-17 1.5093740739205099e-18 1.0
  outer loop
    vertex 168.8640167341529 43.42512626584716 2.3999999999999475
    vertex 173.63914299999996 33.900000000000084 2.3999999999999644
    vertex 169.4202319132455 44.1500000000001 2.399999999999942
  endloop
endfacet
facet normal 7.417206879338014e-17 1.5093740739205099e-18 1.0
  outer loop
    vertex 169.4202319132455 44.1500000000001 2.399999999999942
    vertex 173.63914299999996 33.900000000000084 2.3999999999999644
    vertex 169.7698833920117 44.99413334214128 2.399999999999942
  endloop
endfacet
facet normal 7.417206879338014e-17 1.5093740739205099e-18 1.0
  outer loop
    vertex 169.7698833920117 44.99413334214128 2.399999999999942
    vertex 173.63914299999996 33.900000000000084 2.3999999999999644
    vertex 169.88914299999996 45.900000000000105 2.399999999999942
  endloop
endfacet
facet normal 7.417206879338014e-17 1.5093740739205099e-18 1.0
  outer loop
    vertex 188.68914299999994 1.1999999999999977 2.39999999999997
    vertex 113.68914299999997 4.2000000000000375 2.399999999999976
    vertex 113.68914299999997 1.1999999999999977 2.399999999999976
  endloop
endfacet
facet normal 7.417206879338014e-17 1.5093740739205099e-18 1.0
  outer loop
    vertex 113.68914299999997 4.2000000000000375 2.399999999999976
    vertex 188.68914299999994 1.1999999999999977 2.39999999999997
    vertex 159.13914299999993 24.900000000000095 2.39999999999997
  endloop
endfacet
facet normal 7.417206879338014e-17 1.5093740739205099e-18 1.0
  outer loop
    vertex 113.68914299999997 4.2000000000000375 2.399999999999976
    vertex 159.13914299999993 24.900000000000095 2.39999999999997
    vertex 113.68914299999997 79.20000000000007 2.399999999999976
  endloop
endfacet
facet normal 7.417206879338014e-17 1.5093740739205099e-18 1.0
  outer loop
    vertex 113.68914299999997 79.20000000000007 2.399999999999976
    vertex 159.13914299999993 24.900000000000095 2.39999999999997
    vertex 113.68914299999997 82.20000000000005 2.399999999999976
  endloop
endfacet
facet normal 7.417206879338014e-17 1.5093740739205099e-18 1.0
  outer loop
    vertex 113.68914299999997 82.20000000000005 2.399999999999976
    vertex 159.13914299999993 24.900000000000095 2.39999999999997
    vertex 150.88914299999996 57.90000000000008 2.3999999999999817
  endloop
endfacet
facet normal 7.417206879338014e-17 1.5093740739205099e-18 1.0
  outer loop
    vertex 159.13914299999993 24.900000000000095 2.39999999999997
    vertex 188.68914299999994 1.1999999999999977 2.39999999999997
    vertex 173.63914299999996 24.900000000000095 2.3999999999999644
  endloop
endfacet
facet normal 7.417206879338014e-17 1.5093740739205099e-18 1.0
  outer loop
    vertex 173.63914299999996 24.900000000000095 2.3999999999999644
    vertex 188.68914299999994 1.1999999999999977 2.39999999999997
    vertex 173.63914299999996 33.900000000000084 2.3999999999999644
  endloop
endfacet
facet normal 7.417206879338014e-17 1.5093740739205099e-18 1.0
  outer loop
    vertex 173.63914299999996 33.900000000000084 2.3999999999999644
    vertex 188.68914299999994 1.1999999999999977 2.39999999999997
    vertex 181.88914299999993 57.90000000000008 2.399999999999976
  endloop
endfacet
facet normal 7.417206879338014e-17 1.5093740739205099e-18 1.0
  outer loop
    vertex 181.88914299999993 57.90000000000008 2.399999999999976
    vertex 188.68914299999994 1.1999999999999977 2.39999999999997
    vertex 181.88914299999993 72.40000000000008 2.399999999999976
  endloop
endfacet
facet normal 7.417206879338014e-17 1.5093740739205099e-18 1.0
  outer loop
    vertex 191.68914299999992 4.2000000000000375 2.39999999999997
    vertex 188.68914299999994 79.20000000000007 2.39999999999997
    vertex 188.68914299999994 4.2000000000000375 2.39999999999997
  endloop
endfacet
facet normal 7.417206879338014e-17 1.5093740739205099e-18 1.0
  outer loop
    vertex 188.68914299999994 79.20000000000007 2.39999999999997
    vertex 191.68914299999992 4.2000000000000375 2.39999999999997
    vertex 191.68914299999992 79.20000000000007 2.39999999999997
  endloop
endfacet
facet normal 7.417206879338014e-17 1.5093740739205099e-18 1.0
  outer loop
    vertex 113.68914299999997 82.20000000000005 2.399999999999976
    vertex 150.88914299999996 72.40000000000008 2.3999999999999817
    vertex 178.68914299999992 82.20000000000007 2.39999999999997
  endloop
endfacet
facet normal 7.417206879338014e-17 1.5093740739205099e-18 1.0
  outer loop
    vertex 150.88914299999996 72.40000000000008 2.3999999999999817
    vertex 113.68914299999997 82.20000000000005 2.399999999999976
    vertex 150.88914299999996 57.90000000000008 2.3999999999999817
  endloop
endfacet
facet normal 7.417206879338014e-17 1.5093740739205099e-18 1.0
  outer loop
    vertex 178.68914299999992 82.20000000000007 2.39999999999997
    vertex 150.88914299999996 72.40000000000008 2.3999999999999817
    vertex 181.88914299999993 72.40000000000008 2.399999999999976
  endloop
endfacet
facet normal 7.417206879338014e-17 1.5093740739205099e-18 1.0
  outer loop
    vertex 178.68914299999992 82.20000000000007 2.39999999999997
    vertex 181.88914299999993 72.40000000000008 2.399999999999976
    vertex 188.68914299999994 82.20000000000007 2.39999999999997
  endloop
endfacet
facet normal 7.417206879338014e-17 1.5093740739205099e-18 1.0
  outer loop
    vertex 188.68914299999994 82.20000000000007 2.39999999999997
    vertex 181.88914299999993 72.40000000000008 2.399999999999976
    vertex 188.68914299999994 1.1999999999999977 2.39999999999997
  endloop
endfacet
facet normal 7.417206879338014e-17 1.5093740739205099e-18 1.0
  outer loop
    vertex 188.68914299999994 82.20000000000007 2.39999999999997
    vertex 188.68914299999994 1.1999999999999977 2.39999999999997
    vertex 188.68914299999994 4.2000000000000375 2.39999999999997
  endloop
endfacet
facet normal 7.417206879338014e-17 1.5093740739205099e-18 1.0
  outer loop
    vertex 188.68914299999994 82.20000000000007 2.39999999999997
    vertex 188.68914299999994 4.2000000000000375 2.39999999999997
    vertex 188.68914299999994 79.20000000000007 2.39999999999997
  endloop
endfacet
facet normal 7.417206879338014e-17 1.5093740739205099e-18 1.0
  outer loop
    vertex 150.88914299999996 57.90000000000008 2.3999999999999817
    vertex 164.6391429999999 48.931088913245624 2.3999999999999475
    vertex 181.88914299999993 57.90000000000008 2.399999999999976
  endloop
endfacet
facet normal 7.417206879338014e-17 1.5093740739205099e-18 1.0
  outer loop
    vertex 164.6391429999999 48.931088913245624 2.3999999999999475
    vertex 150.88914299999996 57.90000000000008 2.3999999999999817
    vertex 163.914269265847 48.374873734153006 2.3999999999999475
  endloop
endfacet
facet normal 7.417206879338014e-17 1.5093740739205099e-18 1.0
  outer loop
    vertex 163.914269265847 48.374873734153006 2.3999999999999475
    vertex 150.88914299999996 57.90000000000008 2.3999999999999817
    vertex 163.35805408675435 47.65000000000009 2.3999999999999475
  endloop
endfacet
facet normal 7.417206879338014e-17 1.5093740739205099e-18 1.0
  outer loop
    vertex 163.35805408675435 47.65000000000009 2.3999999999999475
    vertex 150.88914299999996 57.90000000000008 2.3999999999999817
    vertex 163.0084026079882 46.80586665785891 2.3999999999999475
  endloop
endfacet
facet normal 7.417206879338014e-17 1.5093740739205099e-18 1.0
  outer loop
    vertex 163.0084026079882 46.80586665785891 2.3999999999999475
    vertex 150.88914299999996 57.90000000000008 2.3999999999999817
    vertex 159.13914299999993 33.900000000000084 2.39999999999997
  endloop
endfacet
facet normal 7.417206879338014e-17 1.5093740739205099e-18 1.0
  outer loop
    vertex 159.13914299999993 33.900000000000084 2.39999999999997
    vertex 150.88914299999996 57.90000000000008 2.3999999999999817
    vertex 159.13914299999993 24.900000000000095 2.39999999999997
  endloop
endfacet
facet normal 7.417206879338014e-17 1.5093740739205099e-18 1.0
  outer loop
    vertex 163.0084026079882 46.80586665785891 2.3999999999999475
    vertex 159.13914299999993 33.900000000000084 2.39999999999997
    vertex 162.88914299999993 45.900000000000105 2.3999999999999475
  endloop
endfacet
facet normal 7.417206879338014e-17 1.5093740739205099e-18 1.0
  outer loop
    vertex 181.88914299999993 57.90000000000008 2.399999999999976
    vertex 164.6391429999999 48.931088913245624 2.3999999999999475
    vertex 165.48327634214107 49.28074039201183 2.3999999999999475
  endloop
endfacet
facet normal 7.417206879338014e-17 1.5093740739205099e-18 1.0
  outer loop
    vertex 181.88914299999993 57.90000000000008 2.399999999999976
    vertex 165.48327634214107 49.28074039201183 2.3999999999999475
    vertex 166.3891429999999 49.40000000000008 2.3999999999999475
  endloop
endfacet
facet normal 7.417206879338014e-17 1.5093740739205099e-18 1.0
  outer loop
    vertex 181.88914299999993 57.90000000000008 2.399999999999976
    vertex 166.3891429999999 49.40000000000008 2.3999999999999475
    vertex 167.2950096578587 49.28074039201183 2.3999999999999475
  endloop
endfacet
facet normal 7.417206879338014e-17 1.5093740739205099e-18 1.0
  outer loop
    vertex 181.88914299999993 57.90000000000008 2.399999999999976
    vertex 167.2950096578587 49.28074039201183 2.3999999999999475
    vertex 168.1391429999999 48.931088913245624 2.3999999999999475
  endloop
endfacet
facet normal 7.417206879338014e-17 1.5093740739205099e-18 1.0
  outer loop
    vertex 181.88914299999993 57.90000000000008 2.399999999999976
    vertex 168.1391429999999 48.931088913245624 2.3999999999999475
    vertex 168.8640167341529 48.374873734153006 2.3999999999999475
  endloop
endfacet
facet normal 7.417206879338014e-17 1.5093740739205099e-18 1.0
  outer loop
    vertex 181.88914299999993 57.90000000000008 2.399999999999976
    vertex 168.8640167341529 48.374873734153006 2.3999999999999475
    vertex 169.4202319132455 47.65000000000007 2.399999999999942
  endloop
endfacet
facet normal 7.417206879338014e-17 1.5093740739205099e-18 1.0
  outer loop
    vertex 181.88914299999993 57.90000000000008 2.399999999999976
    vertex 169.4202319132455 47.65000000000007 2.399999999999942
    vertex 169.7698833920117 46.80586665785891 2.399999999999942
  endloop
endfacet
facet normal 7.417206879338014e-17 1.5093740739205099e-18 1.0
  outer loop
    vertex 181.88914299999993 57.90000000000008 2.399999999999976
    vertex 169.7698833920117 46.80586665785891 2.399999999999942
    vertex 169.88914299999996 45.900000000000105 2.399999999999942
  endloop
endfacet
facet normal 7.417206879338014e-17 1.5093740739205099e-18 1.0
  outer loop
    vertex 181.88914299999993 57.90000000000008 2.399999999999976
    vertex 169.88914299999996 45.900000000000105 2.399999999999942
    vertex 173.63914299999996 33.900000000000084 2.3999999999999644
  endloop
endfacet
facet normal 7.417206879338014e-17 1.5093740739205099e-18 1.0
  outer loop
    vertex 113.68914299999997 4.2000000000000375 2.399999999999976
    vertex 110.68914299999999 79.20000000000007 2.399999999999976
    vertex 110.68914299999999 4.2000000000000375 2.399999999999976
  endloop
endfacet
facet normal 7.417206879338014e-17 1.5093740739205099e-18 1.0
  outer loop
    vertex 110.68914299999999 79.20000000000007 2.399999999999976
    vertex 113.68914299999997 4.2000000000000375 2.399999999999976
    vertex 113.68914299999997 79.20000000000007 2.399999999999976
  endloop
endfacet
facet normal 1.0 -0.0 -0.0
  outer loop
    vertex 188.68914299999994 83.40000000000003 1.199999999999978
    vertex 188.68914299999994 79.20000000000007 2.39999999999997
    vertex 188.68914299999994 79.20000000000007 1.199999999999978
  endloop
endfacet
facet normal 1.0 -0.0 -0.0
  outer loop
    vertex 188.68914299999994 79.20000000000007 2.39999999999997
    vertex 188.68914299999994 83.40000000000003 1.199999999999978
    vertex 188.68914299999994 82.20000000000007 2.39999999999997
  endloop
endfacet
facet normal 1.0 -0.0 -0.0
  outer loop
    vertex 188.68914299999994 82.20000000000007 2.39999999999997
    vertex 188.68914299999994 83.40000000000003 1.199999999999978
    vertex 188.68914299999994 82.20000000000007 12.399999999999974
  endloop
endfacet
facet normal 1.0 -0.0 -0.0
  outer loop
    vertex 188.68914299999994 82.20000000000007 12.399999999999974
    vertex 188.68914299999994 83.40000000000003 1.199999999999978
    vertex 188.68914299999994 83.40000000000003 12.399999999999958
  endloop
endfacet
facet normal -0.0 1.0 -0.0
  outer loop
    vertex 188.68914299999994 79.20000000000007 2.39999999999997
    vertex 191.68914299999992 79.20000000000007 1.199999999999978
    vertex 188.68914299999994 79.20000000000007 1.199999999999978
  endloop
endfacet
facet normal -0.0 1.0 -0.0
  outer loop
    vertex 191.68914299999992 79.20000000000007 1.199999999999978
    vertex 188.68914299999994 79.20000000000007 2.39999999999997
    vertex 191.68914299999992 79.20000000000007 2.39999999999997
  endloop
endfacet
facet normal 1.0 -0.0 -0.0
  outer loop
    vertex 191.68914299999992 79.20000000000007 1.199999999999978
    vertex 191.68914299999992 4.2000000000000375 2.39999999999997
    vertex 191.68914299999992 4.2000000000000375 1.199999999999978
  endloop
endfacet
facet normal 1.0 -0.0 -0.0
  outer loop
    vertex 191.68914299999992 4.2000000000000375 2.39999999999997
    vertex 191.68914299999992 79.20000000000007 1.199999999999978
    vertex 191.68914299999992 79.20000000000007 2.39999999999997
  endloop
endfacet
facet normal -1.0 0.0 0.0
  outer loop
    vertex 109.48914299999998 83.40000000000003 1.1999999999999837
    vertex 109.48914299999998 0.0 -8.459899447643684e-15
    vertex 109.48914299999998 0.0 1.1999999999999837
  endloop
endfacet
facet normal -1.0 0.0 0.0
  outer loop
    vertex 109.48914299999998 0.0 -8.459899447643684e-15
    vertex 109.48914299999998 83.40000000000003 1.1999999999999837
    vertex 109.48914299999998 83.40000000000003 -8.459899447643684e-15
  endloop
endfacet
facet normal 7.30226278888845e-17 2.1289617572098684e-18 1.0
  outer loop
    vertex 109.48914299999998 0.0 1.1999999999999837
    vertex 110.68914299999999 4.2000000000000375 1.1999999999999837
    vertex 109.48914299999998 83.40000000000003 1.1999999999999837
  endloop
endfacet
facet normal 7.30226278888845e-17 2.1289617572098684e-18 1.0
  outer loop
    vertex 110.68914299999999 4.2000000000000375 1.1999999999999837
    vertex 109.48914299999998 0.0 1.1999999999999837
    vertex 113.68914299999997 1.1999999999999977 1.1999999999999837
  endloop
endfacet
facet normal 7.30226278888845e-17 2.1289617572098684e-18 1.0
  outer loop
    vertex 113.68914299999997 1.1999999999999977 1.1999999999999837
    vertex 109.48914299999998 0.0 1.1999999999999837
    vertex 192.88914299999993 0.0 1.199999999999978
  endloop
endfacet
facet normal 7.30226278888845e-17 2.1289617572098684e-18 1.0
  outer loop
    vertex 113.68914299999997 1.1999999999999977 1.1999999999999837
    vertex 192.88914299999993 0.0 1.199999999999978
    vertex 188.68914299999994 1.1999999999999977 1.199999999999978
  endloop
endfacet
facet normal 7.30226278888845e-17 2.1289617572098684e-18 1.0
  outer loop
    vertex 188.68914299999994 1.1999999999999977 1.199999999999978
    vertex 192.88914299999993 0.0 1.199999999999978
    vertex 188.68914299999994 4.2000000000000375 1.199999999999978
  endloop
endfacet
facet normal 7.30226278888845e-17 2.1289617572098684e-18 1.0
  outer loop
    vertex 188.68914299999994 4.2000000000000375 1.199999999999978
    vertex 192.88914299999993 0.0 1.199999999999978
    vertex 191.68914299999992 4.2000000000000375 1.199999999999978
  endloop
endfacet
facet normal 7.30226278888845e-17 2.1289617572098684e-18 1.0
  outer loop
    vertex 191.68914299999992 4.2000000000000375 1.199999999999978
    vertex 192.88914299999993 0.0 1.199999999999978
    vertex 191.68914299999992 79.20000000000007 1.199999999999978
  endloop
endfacet
facet normal 7.30226278888845e-17 2.1289617572098684e-18 1.0
  outer loop
    vertex 191.68914299999992 79.20000000000007 1.199999999999978
    vertex 188.68914299999994 83.40000000000003 1.199999999999978
    vertex 188.68914299999994 79.20000000000007 1.199999999999978
  endloop
endfacet
facet normal 7.30226278888845e-17 2.1289617572098684e-18 1.0
  outer loop
    vertex 188.68914299999994 83.40000000000003 1.199999999999978
    vertex 191.68914299999992 79.20000000000007 1.199999999999978
    vertex 192.88914299999993 83.40000000000003 1.199999999999978
  endloop
endfacet
facet normal 7.30226278888845e-17 2.1289617572098684e-18 1.0
  outer loop
    vertex 192.88914299999993 83.40000000000003 1.199999999999978
    vertex 191.68914299999992 79.20000000000007 1.199999999999978
    vertex 192.88914299999993 0.0 1.199999999999978
  endloop
endfacet
facet normal 7.30226278888845e-17 2.1289617572098684e-18 1.0
  outer loop
    vertex 113.68914299999997 4.2000000000000375 1.1999999999999837
    vertex 110.68914299999999 4.2000000000000375 1.1999999999999837
    vertex 113.68914299999997 1.1999999999999977 1.1999999999999837
  endloop
endfacet
facet normal 7.30226278888845e-17 2.1289617572098684e-18 1.0
  outer loop
    vertex 109.48914299999998 83.40000000000003 1.1999999999999837
    vertex 113.68914299999997 82.20000000000005 1.1999999999999837
    vertex 178.68914299999992 83.40000000000003 1.199999999999978
  endloop
endfacet
facet normal 7.30226278888845e-17 2.1289617572098684e-18 1.0
  outer loop
    vertex 113.68914299999997 82.20000000000005 1.1999999999999837
    vertex 109.48914299999998 83.40000000000003 1.1999999999999837
    vertex 110.68914299999999 79.20000000000007 1.1999999999999837
  endloop
endfacet
facet normal 7.30226278888845e-17 2.1289617572098684e-18 1.0
  outer loop
    vertex 110.68914299999999 79.20000000000007 1.1999999999999837
    vertex 109.48914299999998 83.40000000000003 1.1999999999999837
    vertex 110.68914299999999 4.2000000000000375 1.1999999999999837
  endloop
endfacet
facet normal 7.30226278888845e-17 2.1289617572098684e-18 1.0
  outer loop
    vertex 113.68914299999997 82.20000000000005 1.1999999999999837
    vertex 110.68914299999999 79.20000000000007 1.1999999999999837
    vertex 113.68914299999997 79.20000000000007 1.1999999999999837
  endloop
endfacet
facet normal 7.30226278888845e-17 2.1289617572098684e-18 1.0
  outer loop
    vertex 178.68914299999992 83.40000000000003 1.199999999999978
    vertex 113.68914299999997 82.20000000000005 1.1999999999999837
    vertex 178.68914299999992 82.20000000000007 1.199999999999978
  endloop
endfacet
facet normal 0.0 -1.0 0.0
  outer loop
    vertex 191.68914299999992 4.2000000000000375 2.39999999999997
    vertex 188.68914299999994 4.2000000000000375 1.199999999999978
    vertex 191.68914299999992 4.2000000000000375 1.199999999999978
  endloop
endfacet
facet normal 0.0 -1.0 0.0
  outer loop
    vertex 188.68914299999994 4.2000000000000375 1.199999999999978
    vertex 191.68914299999992 4.2000000000000375 2.39999999999997
    vertex 188.68914299999994 4.2000000000000375 2.39999999999997
  endloop
endfacet
facet normal 0.0 -1.0 0.0
  outer loop
    vertex 188.68914299999994 1.1999999999999977 2.39999999999997
    vertex 113.68914299999997 1.1999999999999977 1.1999999999999837
    vertex 188.68914299999994 1.1999999999999977 1.199999999999978
  endloop
endfacet
facet normal 0.0 -1.0 0.0
  outer loop
    vertex 113.68914299999997 1.1999999999999977 1.1999999999999837
    vertex 188.68914299999994 1.1999999999999977 2.39999999999997
    vertex 113.68914299999997 1.1999999999999977 2.399999999999976
  endloop
endfacet
facet normal 1.0 -0.0 -0.0
  outer loop
    vertex 188.68914299999994 4.2000000000000375 1.199999999999978
    vertex 188.68914299999994 1.1999999999999977 2.39999999999997
    vertex 188.68914299999994 1.1999999999999977 1.199999999999978
  endloop
endfacet
facet normal 1.0 -0.0 -0.0
  outer loop
    vertex 188.68914299999994 1.1999999999999977 2.39999999999997
    vertex 188.68914299999994 4.2000000000000375 1.199999999999978
    vertex 188.68914299999994 4.2000000000000375 2.39999999999997
  endloop
endfacet
facet normal 0.0 -1.0 0.0
  outer loop
    vertex 192.88914299999993 0.0 1.199999999999978
    vertex 109.48914299999998 0.0 -8.459899447643684e-15
    vertex 192.88914299999993 0.0 -1.4099832412739482e-14
  endloop
endfacet
facet normal 0.0 -1.0 0.0
  outer loop
    vertex 109.48914299999998 0.0 -8.459899447643684e-15
    vertex 192.88914299999993 0.0 1.199999999999978
    vertex 109.48914299999998 0.0 1.1999999999999837
  endloop
endfacet
facet normal -6.762509550474584e-17 0.0 -1.0
  outer loop
    vertex 150.88914299999996 57.90000000000008 -8.459899447643684e-15
    vertex 163.0084026079882 46.80586665785891 -8.459899447643684e-15
    vertex 159.13914299999993 33.900000000000084 -8.459899447643684e-15
  endloop
endfacet
facet normal -6.762509550474584e-17 0.0 -1.0
  outer loop
    vertex 163.0084026079882 46.80586665785891 -8.459899447643684e-15
    vertex 150.88914299999996 57.90000000000008 -8.459899447643684e-15
    vertex 163.35805408675435 47.65000000000009 -8.459899447643684e-15
  endloop
endfacet
facet normal -6.762509550474584e-17 0.0 -1.0
  outer loop
    vertex 163.35805408675435 47.65000000000009 -8.459899447643684e-15
    vertex 150.88914299999996 57.90000000000008 -8.459899447643684e-15
    vertex 163.914269265847 48.374873734153006 -8.459899447643684e-15
  endloop
endfacet
facet normal -6.762509550474584e-17 0.0 -1.0
  outer loop
    vertex 163.914269265847 48.374873734153006 -8.459899447643684e-15
    vertex 150.88914299999996 57.90000000000008 -8.459899447643684e-15
    vertex 164.6391429999999 48.931088913245624 -8.459899447643684e-15
  endloop
endfacet
facet normal -6.762509550474584e-17 0.0 -1.0
  outer loop
    vertex 164.6391429999999 48.931088913245624 -8.459899447643684e-15
    vertex 150.88914299999996 57.90000000000008 -8.459899447643684e-15
    vertex 181.88914299999993 57.90000000000008 -1.4099832412739482e-14
  endloop
endfacet
facet normal -6.762509550474584e-17 0.0 -1.0
  outer loop
    vertex 159.13914299999993 33.900000000000084 -8.459899447643684e-15
    vertex 163.0084026079882 46.80586665785891 -8.459899447643684e-15
    vertex 162.88914299999993 45.900000000000105 -8.459899447643684e-15
  endloop
endfacet
facet normal -6.762509550474584e-17 0.0 -1.0
  outer loop
    vertex 164.6391429999999 48.931088913245624 -8.459899447643684e-15
    vertex 181.88914299999993 57.90000000000008 -1.4099832412739482e-14
    vertex 165.48327634214107 49.28074039201183 -8.459899447643684e-15
  endloop
endfacet
facet normal -6.762509550474584e-17 0.0 -1.0
  outer loop
    vertex 165.48327634214107 49.28074039201183 -8.459899447643684e-15
    vertex 181.88914299999993 57.90000000000008 -1.4099832412739482e-14
    vertex 166.3891429999999 49.40000000000008 -8.459899447643684e-15
  endloop
endfacet
facet normal -6.762509550474584e-17 0.0 -1.0
  outer loop
    vertex 166.3891429999999 49.40000000000008 -8.459899447643684e-15
    vertex 181.88914299999993 57.90000000000008 -1.4099832412739482e-14
    vertex 167.2950096578587 49.28074039201183 -8.459899447643684e-15
  endloop
endfacet
facet normal -6.762509550474584e-17 0.0 -1.0
  outer loop
    vertex 167.2950096578587 49.28074039201183 -8.459899447643684e-15
    vertex 181.88914299999993 57.90000000000008 -1.4099832412739482e-14
    vertex 168.1391429999999 48.931088913245624 -8.459899447643684e-15
  endloop
endfacet
facet normal -6.762509550474584e-17 0.0 -1.0
  outer loop
    vertex 168.1391429999999 48.931088913245624 -8.459899447643684e-15
    vertex 181.88914299999993 57.90000000000008 -1.4099832412739482e-14
    vertex 168.8640167341529 48.374873734153006 -8.459899447643684e-15
  endloop
endfacet
facet normal -6.762509550474584e-17 0.0 -1.0
  outer loop
    vertex 168.8640167341529 48.374873734153006 -8.459899447643684e-15
    vertex 181.88914299999993 57.90000000000008 -1.4099832412739482e-14
    vertex 169.4202319132455 47.65000000000007 -1.4099832412739482e-14
  endloop
endfacet
facet normal -6.762509550474584e-17 0.0 -1.0
  outer loop
    vertex 169.4202319132455 47.65000000000007 -1.4099832412739482e-14
    vertex 181.88914299999993 57.90000000000008 -1.4099832412739482e-14
    vertex 169.7698833920117 46.80586665785891 -1.4099832412739482e-14
  endloop
endfacet
facet normal -6.762509550474584e-17 0.0 -1.0
  outer loop
    vertex 169.7698833920117 46.80586665785891 -1.4099832412739482e-14
    vertex 181.88914299999993 57.90000000000008 -1.4099832412739482e-14
    vertex 169.88914299999996 45.900000000000105 -1.4099832412739482e-14
  endloop
endfacet
facet normal -6.762509550474584e-17 0.0 -1.0
  outer loop
    vertex 169.88914299999996 45.900000000000105 -1.4099832412739482e-14
    vertex 181.88914299999993 57.90000000000008 -1.4099832412739482e-14
    vertex 173.63914299999996 33.900000000000084 -1.4099832412739482e-14
  endloop
endfacet
facet normal -6.762509550474584e-17 0.0 -1.0
  outer loop
    vertex 173.63914299999996 33.900000000000084 -1.4099832412739482e-14
    vertex 181.88914299999993 57.90000000000008 -1.4099832412739482e-14
    vertex 173.63914299999996 24.900000000000095 -1.4099832412739482e-14
  endloop
endfacet
facet normal -6.762509550474584e-17 0.0 -1.0
  outer loop
    vertex 109.48914299999998 83.40000000000003 -8.459899447643684e-15
    vertex 150.88914299999996 72.40000000000008 -8.459899447643684e-15
    vertex 109.48914299999998 0.0 -8.459899447643684e-15
  endloop
endfacet
facet normal -6.762509550474584e-17 0.0 -1.0
  outer loop
    vertex 150.88914299999996 72.40000000000008 -8.459899447643684e-15
    vertex 109.48914299999998 83.40000000000003 -8.459899447643684e-15
    vertex 192.88914299999993 83.40000000000003 -1.4099832412739482e-14
  endloop
endfacet
facet normal -6.762509550474584e-17 0.0 -1.0
  outer loop
    vertex 150.88914299999996 72.40000000000008 -8.459899447643684e-15
    vertex 192.88914299999993 83.40000000000003 -1.4099832412739482e-14
    vertex 181.88914299999993 72.40000000000008 -1.4099832412739482e-14
  endloop
endfacet
facet normal -6.762509550474584e-17 0.0 -1.0
  outer loop
    vertex 181.88914299999993 72.40000000000008 -1.4099832412739482e-14
    vertex 192.88914299999993 83.40000000000003 -1.4099832412739482e-14
    vertex 181.88914299999993 57.90000000000008 -1.4099832412739482e-14
  endloop
endfacet
facet normal -6.762509550474584e-17 0.0 -1.0
  outer loop
    vertex 109.48914299999998 0.0 -8.459899447643684e-15
    vertex 159.13914299999993 24.900000000000095 -8.459899447643684e-15
    vertex 192.88914299999993 0.0 -1.4099832412739482e-14
  endloop
endfacet
facet normal -6.762509550474584e-17 0.0 -1.0
  outer loop
    vertex 159.13914299999993 24.900000000000095 -8.459899447643684e-15
    vertex 109.48914299999998 0.0 -8.459899447643684e-15
    vertex 150.88914299999996 57.90000000000008 -8.459899447643684e-15
  endloop
endfacet
facet normal -6.762509550474584e-17 0.0 -1.0
  outer loop
    vertex 150.88914299999996 57.90000000000008 -8.459899447643684e-15
    vertex 109.48914299999998 0.0 -8.459899447643684e-15
    vertex 150.88914299999996 72.40000000000008 -8.459899447643684e-15
  endloop
endfacet
facet normal -6.762509550474584e-17 0.0 -1.0
  outer loop
    vertex 159.13914299999993 24.900000000000095 -8.459899447643684e-15
    vertex 150.88914299999996 57.90000000000008 -8.459899447643684e-15
    vertex 159.13914299999993 33.900000000000084 -8.459899447643684e-15
  endloop
endfacet
facet normal -6.762509550474584e-17 0.0 -1.0
  outer loop
    vertex 192.88914299999993 0.0 -1.4099832412739482e-14
    vertex 159.13914299999993 24.900000000000095 -8.459899447643684e-15
    vertex 173.63914299999996 24.900000000000095 -1.4099832412739482e-14
  endloop
endfacet
facet normal -6.762509550474584e-17 0.0 -1.0
  outer loop
    vertex 192.88914299999993 0.0 -1.4099832412739482e-14
    vertex 173.63914299999996 24.900000000000095 -1.4099832412739482e-14
    vertex 181.88914299999993 57.90000000000008 -1.4099832412739482e-14
  endloop
endfacet
facet normal -6.762509550474584e-17 0.0 -1.0
  outer loop
    vertex 192.88914299999993 0.0 -1.4099832412739482e-14
    vertex 181.88914299999993 57.90000000000008 -1.4099832412739482e-14
    vertex 192.88914299999993 83.40000000000003 -1.4099832412739482e-14
  endloop
endfacet
facet normal -6.762509550474584e-17 0.0 -1.0
  outer loop
    vertex 159.13914299999993 33.900000000000084 -8.459899447643684e-15
    vertex 163.914269265847 43.42512626584716 -8.459899447643684e-15
    vertex 173.63914299999996 33.900000000000084 -1.4099832412739482e-14
  endloop
endfacet
facet normal -6.762509550474584e-17 0.0 -1.0
  outer loop
    vertex 163.914269265847 43.42512626584716 -8.459899447643684e-15
    vertex 159.13914299999993 33.900000000000084 -8.459899447643684e-15
    vertex 163.35805408675435 44.1500000000001 -8.459899447643684e-15
  endloop
endfacet
facet normal -6.762509550474584e-17 0.0 -1.0
  outer loop
    vertex 163.35805408675435 44.1500000000001 -8.459899447643684e-15
    vertex 159.13914299999993 33.900000000000084 -8.459899447643684e-15
    vertex 163.0084026079882 44.99413334214128 -8.459899447643684e-15
  endloop
endfacet
facet normal -6.762509550474584e-17 0.0 -1.0
  outer loop
    vertex 163.0084026079882 44.99413334214128 -8.459899447643684e-15
    vertex 159.13914299999993 33.900000000000084 -8.459899447643684e-15
    vertex 162.88914299999993 45.900000000000105 -8.459899447643684e-15
  endloop
endfacet
facet normal -6.762509550474584e-17 0.0 -1.0
  outer loop
    vertex 173.63914299999996 33.900000000000084 -1.4099832412739482e-14
    vertex 163.914269265847 43.42512626584716 -8.459899447643684e-15
    vertex 164.6391429999999 42.868911086754565 -8.459899447643684e-15
  endloop
endfacet
facet normal -6.762509550474584e-17 0.0 -1.0
  outer loop
    vertex 173.63914299999996 33.900000000000084 -1.4099832412739482e-14
    vertex 164.6391429999999 42.868911086754565 -8.459899447643684e-15
    vertex 165.48327634214107 42.51925960798834 -8.459899447643684e-15
  endloop
endfacet
facet normal -6.762509550474584e-17 0.0 -1.0
  outer loop
    vertex 173.63914299999996 33.900000000000084 -1.4099832412739482e-14
    vertex 165.48327634214107 42.51925960798834 -8.459899447643684e-15
    vertex 166.3891429999999 42.40000000000009 -8.459899447643684e-15
  endloop
endfacet
facet normal -6.762509550474584e-17 0.0 -1.0
  outer loop
    vertex 173.63914299999996 33.900000000000084 -1.4099832412739482e-14
    vertex 166.3891429999999 42.40000000000009 -8.459899447643684e-15
    vertex 167.2950096578587 42.51925960798834 -8.459899447643684e-15
  endloop
endfacet
facet normal -6.762509550474584e-17 0.0 -1.0
  outer loop
    vertex 173.63914299999996 33.900000000000084 -1.4099832412739482e-14
    vertex 167.2950096578587 42.51925960798834 -8.459899447643684e-15
    vertex 168.1391429999999 42.868911086754565 -8.459899447643684e-15
  endloop
endfacet
facet normal -6.762509550474584e-17 0.0 -1.0
  outer loop
    vertex 173.63914299999996 33.900000000000084 -1.4099832412739482e-14
    vertex 168.1391429999999 42.868911086754565 -8.459899447643684e-15
    vertex 168.8640167341529 43.42512626584716 -8.459899447643684e-15
  endloop
endfacet
facet normal -6.762509550474584e-17 0.0 -1.0
  outer loop
    vertex 173.63914299999996 33.900000000000084 -1.4099832412739482e-14
    vertex 168.8640167341529 43.42512626584716 -8.459899447643684e-15
    vertex 169.4202319132455 44.1500000000001 -1.4099832412739482e-14
  endloop
endfacet
facet normal -6.762509550474584e-17 0.0 -1.0
  outer loop
    vertex 173.63914299999996 33.900000000000084 -1.4099832412739482e-14
    vertex 169.4202319132455 44.1500000000001 -1.4099832412739482e-14
    vertex 169.7698833920117 44.99413334214128 -1.4099832412739482e-14
  endloop
endfacet
facet normal -6.762509550474584e-17 0.0 -1.0
  outer loop
    vertex 173.63914299999996 33.900000000000084 -1.4099832412739482e-14
    vertex 169.7698833920117 44.99413334214128 -1.4099832412739482e-14
    vertex 169.88914299999996 45.900000000000105 -1.4099832412739482e-14
  endloop
endfacet
facet normal -0.0 1.0 -0.0
  outer loop
    vertex 109.48914299999998 83.40000000000003 1.1999999999999837
    vertex 178.68914299999992 83.40000000000003 1.199999999999978
    vertex 109.48914299999998 83.40000000000003 -8.459899447643684e-15
  endloop
endfacet
facet normal -0.0 1.0 -0.0
  outer loop
    vertex 178.68914299999992 83.40000000000003 12.399999999999963
    vertex 188.68914299999994 83.40000000000003 1.199999999999978
    vertex 178.68914299999992 83.40000000000003 1.199999999999978
  endloop
endfacet
facet normal -0.0 1.0 -0.0
  outer loop
    vertex 188.68914299999994 83.40000000000003 1.199999999999978
    vertex 178.68914299999992 83.40000000000003 12.399999999999963
    vertex 188.68914299999994 83.40000000000003 12.399999999999958
  endloop
endfacet
facet normal -0.0 1.0 -0.0
  outer loop
    vertex 109.48914299999998 83.40000000000003 -8.459899447643684e-15
    vertex 192.88914299999993 83.40000000000003 1.199999999999978
    vertex 192.88914299999993 83.40000000000003 -1.4099832412739482e-14
  endloop
endfacet
facet normal -0.0 1.0 -0.0
  outer loop
    vertex 192.88914299999993 83.40000000000003 1.199999999999978
    vertex 109.48914299999998 83.40000000000003 -8.459899447643684e-15
    vertex 178.68914299999992 83.40000000000003 1.199999999999978
  endloop
endfacet
facet normal -0.0 1.0 -0.0
  outer loop
    vertex 192.88914299999993 83.40000000000003 1.199999999999978
    vertex 178.68914299999992 83.40000000000003 1.199999999999978
    vertex 188.68914299999994 83.40000000000003 1.199999999999978
  endloop
endfacet
facet normal 1.0 -0.0 -0.0
  outer loop
    vertex 192.88914299999993 83.40000000000003 -1.4099832412739482e-14
    vertex 192.88914299999993 0.0 1.199999999999978
    vertex 192.88914299999993 0.0 -1.4099832412739482e-14
  endloop
endfacet
facet normal 1.0 -0.0 -0.0
  outer loop
    vertex 192.88914299999993 0.0 1.199999999999978
    vertex 192.88914299999993 83.40000000000003 -1.4099832412739482e-14
    vertex 192.88914299999993 83.40000000000003 1.199999999999978
  endloop
endfacet
facet normal -0.0 1.0 -0.0
  outer loop
    vertex 110.68914299999999 79.20000000000007 2.399999999999976
    vertex 113.68914299999997 79.20000000000007 1.1999999999999837
    vertex 110.68914299999999 79.20000000000007 1.1999999999999837
  endloop
endfacet
facet normal -0.0 1.0 -0.0
  outer loop
    vertex 113.68914299999997 79.20000000000007 1.1999999999999837
    vertex 110.68914299999999 79.20000000000007 2.399999999999976
    vertex 113.68914299999997 79.20000000000007 2.399999999999976
  endloop
endfacet
facet normal -1.0 0.0 0.0
  outer loop
    vertex 110.68914299999999 79.20000000000007 2.399999999999976
    vertex 110.68914299999999 4.2000000000000375 1.1999999999999837
    vertex 110.68914299999999 4.2000000000000375 2.399999999999976
  endloop
endfacet
facet normal -1.0 0.0 0.0
  outer loop
    vertex 110.68914299999999 4.2000000000000375 1.1999999999999837
    vertex 110.68914299999999 79.20000000000007 2.399999999999976
    vertex 110.68914299999999 79.20000000000007 1.1999999999999837
  endloop
endfacet
facet normal -2.8199664825478903e-16 7.049916206370022e-15 1.0
  outer loop
    vertex 188.68914299999994 82.20000000000007 12.399999999999974
    vertex 178.68914299999992 83.40000000000003 12.399999999999963
    vertex 178.68914299999992 82.20000000000007 12.399999999999963
  endloop
endfacet
facet normal -2.8199664825478903e-16 7.049916206370022e-15 1.0
  outer loop
    vertex 178.68914299999992 83.40000000000003 12.399999999999963
    vertex 188.68914299999994 82.20000000000007 12.399999999999974
    vertex 188.68914299999994 83.40000000000003 12.399999999999958
  endloop
endfacet
facet normal 0.0 -1.0 0.0
  outer loop
    vertex 113.68914299999997 4.2000000000000375 2.399999999999976
    vertex 110.68914299999999 4.2000000000000375 1.1999999999999837
    vertex 113.68914299999997 4.2000000000000375 1.1999999999999837
  endloop
endfacet
facet normal 0.0 -1.0 0.0
  outer loop
    vertex 110.68914299999999 4.2000000000000375 1.1999999999999837
    vertex 113.68914299999997 4.2000000000000375 2.399999999999976
    vertex 110.68914299999999 4.2000000000000375 2.399999999999976
  endloop
endfacet
facet normal -1.0 0.0 0.0
  outer loop
    vertex 113.68914299999997 4.2000000000000375 2.399999999999976
    vertex 113.68914299999997 1.1999999999999977 1.1999999999999837
    vertex 113.68914299999997 1.1999999999999977 2.399999999999976
  endloop
endfacet
facet normal -1.0 0.0 0.0
  outer loop
    vertex 113.68914299999997 1.1999999999999977 1.1999999999999837
    vertex 113.68914299999997 4.2000000000000375 2.399999999999976
    vertex 113.68914299999997 4.2000000000000375 1.1999999999999837
  endloop
endfacet
facet normal 0.0 -1.0 0.0
  outer loop
    vertex 188.68914299999994 82.20000000000007 12.399999999999974
    vertex 178.68914299999992 82.20000000000007 2.39999999999997
    vertex 188.68914299999994 82.20000000000007 2.39999999999997
  endloop
endfacet
facet normal 0.0 -1.0 0.0
  outer loop
    vertex 178.68914299999992 82.20000000000007 2.39999999999997
    vertex 188.68914299999994 82.20000000000007 12.399999999999974
    vertex 178.68914299999992 82.20000000000007 12.399999999999963
  endloop
endfacet
facet normal 0.991444861373812 -0.13052619222003958 -0.0
  outer loop
    vertex 163.0084026079882 46.80586665785891 -8.459899447643684e-15
    vertex 162.88914299999993 45.900000000000105 2.3999999999999475
    vertex 162.88914299999993 45.900000000000105 -8.459899447643684e-15
  endloop
endfacet
facet normal 0.991444861373812 -0.13052619222003958 -0.0
  outer loop
    vertex 162.88914299999993 45.900000000000105 2.3999999999999475
    vertex 163.0084026079882 46.80586665785891 -8.459899447643684e-15
    vertex 163.0084026079882 46.80586665785891 2.3999999999999475
  endloop
endfacet
facet normal 0.0 -1.0 0.0
  outer loop
    vertex 181.88914299999993 72.40000000000008 2.399999999999976
    vertex 150.88914299999996 72.40000000000008 -8.459899447643684e-15
    vertex 181.88914299999993 72.40000000000008 -1.4099832412739482e-14
  endloop
endfacet
facet normal 0.0 -1.0 0.0
  outer loop
    vertex 150.88914299999996 72.40000000000008 -8.459899447643684e-15
    vertex 181.88914299999993 72.40000000000008 2.399999999999976
    vertex 150.88914299999996 72.40000000000008 2.3999999999999817
  endloop
endfacet
facet normal -0.9238795325112744 -0.3826834323651197 0.0
  outer loop
    vertex 169.4202319132455 47.65000000000007 2.399999999999942
    vertex 169.7698833920117 46.80586665785891 -1.4099832412739482e-14
    vertex 169.7698833920117 46.80586665785891 2.399999999999942
  endloop
endfacet
facet normal -0.9238795325112744 -0.3826834323651197 0.0
  outer loop
    vertex 169.7698833920117 46.80586665785891 -1.4099832412739482e-14
    vertex 169.4202319132455 47.65000000000007 2.399999999999942
    vertex 169.4202319132455 47.65000000000007 -1.4099832412739482e-14
  endloop
endfacet
facet normal -0.0 1.0 -0.0
  outer loop
    vertex 159.13914299999993 24.900000000000095 -8.459899447643684e-15
    vertex 173.63914299999996 24.900000000000095 2.3999999999999644
    vertex 173.63914299999996 24.900000000000095 -1.4099832412739482e-14
  endloop
endfacet
facet normal -0.0 1.0 -0.0
  outer loop
    vertex 173.63914299999996 24.900000000000095 2.3999999999999644
    vertex 159.13914299999993 24.900000000000095 -8.459899447643684e-15
    vertex 159.13914299999993 24.900000000000095 2.39999999999997
  endloop
endfacet
facet normal -0.9914448613738125 0.1305261922200364 0.0
  outer loop
    vertex 169.88914299999996 45.900000000000105 2.399999999999942
    vertex 169.7698833920117 44.99413334214128 -1.4099832412739482e-14
    vertex 169.7698833920117 44.99413334214128 2.399999999999942
  endloop
endfacet
facet normal -0.9914448613738125 0.1305261922200364 0.0
  outer loop
    vertex 169.7698833920117 44.99413334214128 -1.4099832412739482e-14
    vertex 169.88914299999996 45.900000000000105 2.399999999999942
    vertex 169.88914299999996 45.900000000000105 -1.4099832412739482e-14
  endloop
endfacet
facet normal -0.7933533402912564 -0.6087614290086931 4.865006394710135e-18
  outer loop
    vertex 168.8640167341529 48.374873734153006 2.3999999999999475
    vertex 169.4202319132455 47.65000000000007 -1.4099832412739482e-14
    vertex 169.4202319132455 47.65000000000007 2.399999999999942
  endloop
endfacet
facet normal -0.7933533402912564 -0.6087614290086931 4.865006394710135e-18
  outer loop
    vertex 169.4202319132455 47.65000000000007 -1.4099832412739482e-14
    vertex 168.8640167341529 48.374873734153006 2.3999999999999475
    vertex 168.8640167341529 48.374873734153006 -8.459899447643684e-15
  endloop
endfacet
facet normal 0.7933533402912325 0.6087614290087242 -0.0
  outer loop
    vertex 163.35805408675435 44.1500000000001 -8.459899447643684e-15
    vertex 163.914269265847 43.42512626584716 2.3999999999999475
    vertex 163.914269265847 43.42512626584716 -8.459899447643684e-15
  endloop
endfacet
facet normal 0.7933533402912325 0.6087614290087242 -0.0
  outer loop
    vertex 163.914269265847 43.42512626584716 2.3999999999999475
    vertex 163.35805408675435 44.1500000000001 -8.459899447643684e-15
    vertex 163.35805408675435 44.1500000000001 2.3999999999999475
  endloop
endfacet
facet normal -0.0 1.0 -0.0
  outer loop
    vertex 150.88914299999996 57.90000000000008 -8.459899447643684e-15
    vertex 181.88914299999993 57.90000000000008 2.399999999999976
    vertex 181.88914299999993 57.90000000000008 -1.4099832412739482e-14
  endloop
endfacet
facet normal -0.0 1.0 -0.0
  outer loop
    vertex 181.88914299999993 57.90000000000008 2.399999999999976
    vertex 150.88914299999996 57.90000000000008 -8.459899447643684e-15
    vertex 150.88914299999996 57.90000000000008 2.3999999999999817
  endloop
endfacet
facet normal -0.13052619222003642 -0.9914448613738125 0.0
  outer loop
    vertex 167.2950096578587 49.28074039201183 2.3999999999999475
    vertex 166.3891429999999 49.40000000000008 -8.459899447643684e-15
    vertex 167.2950096578587 49.28074039201183 -8.459899447643684e-15
  endloop
endfacet
facet normal -0.13052619222003642 -0.9914448613738125 0.0
  outer loop
    vertex 166.3891429999999 49.40000000000008 -8.459899447643684e-15
    vertex 167.2950096578587 49.28074039201183 2.3999999999999475
    vertex 166.3891429999999 49.40000000000008 2.3999999999999475
  endloop
endfacet
facet normal 0.3826834323650899 -0.9238795325112867 0.0
  outer loop
    vertex 165.48327634214107 49.28074039201183 2.3999999999999475
    vertex 164.6391429999999 48.931088913245624 -8.459899447643684e-15
    vertex 165.48327634214107 49.28074039201183 -8.459899447643684e-15
  endloop
endfacet
facet normal 0.3826834323650899 -0.9238795325112867 0.0
  outer loop
    vertex 164.6391429999999 48.931088913245624 -8.459899447643684e-15
    vertex 165.48327634214107 49.28074039201183 2.3999999999999475
    vertex 164.6391429999999 48.931088913245624 2.3999999999999475
  endloop
endfacet
facet normal 0.608761429008717 0.793353340291238 -0.0
  outer loop
    vertex 163.914269265847 43.42512626584716 2.3999999999999475
    vertex 164.6391429999999 42.868911086754565 -8.459899447643684e-15
    vertex 163.914269265847 43.42512626584716 -8.459899447643684e-15
  endloop
endfacet
facet normal 0.608761429008717 0.793353340291238 -0.0
  outer loop
    vertex 164.6391429999999 42.868911086754565 -8.459899447643684e-15
    vertex 163.914269265847 43.42512626584716 2.3999999999999475
    vertex 164.6391429999999 42.868911086754565 2.3999999999999475
  endloop
endfacet
facet normal 1.0 -0.0 -0.0
  outer loop
    vertex 150.88914299999996 72.40000000000008 -8.459899447643684e-15
    vertex 150.88914299999996 57.90000000000008 2.3999999999999817
    vertex 150.88914299999996 57.90000000000008 -8.459899447643684e-15
  endloop
endfacet
facet normal 1.0 -0.0 -0.0
  outer loop
    vertex 150.88914299999996 57.90000000000008 2.3999999999999817
    vertex 150.88914299999996 72.40000000000008 -8.459899447643684e-15
    vertex 150.88914299999996 72.40000000000008 2.3999999999999817
  endloop
endfacet
facet normal 0.9914448613738125 0.1305261922200364 -0.0
  outer loop
    vertex 162.88914299999993 45.900000000000105 -8.459899447643684e-15
    vertex 163.0084026079882 44.99413334214128 2.3999999999999475
    vertex 163.0084026079882 44.99413334214128 -8.459899447643684e-15
  endloop
endfacet
facet normal 0.9914448613738125 0.1305261922200364 -0.0
  outer loop
    vertex 163.0084026079882 44.99413334214128 2.3999999999999475
    vertex 162.88914299999993 45.900000000000105 -8.459899447643684e-15
    vertex 162.88914299999993 45.900000000000105 2.3999999999999475
  endloop
endfacet
facet normal -0.38268343236511093 0.923879532511278 -0.0
  outer loop
    vertex 167.2950096578587 42.51925960798834 2.3999999999999475
    vertex 168.1391429999999 42.868911086754565 -8.459899447643684e-15
    vertex 167.2950096578587 42.51925960798834 -8.459899447643684e-15
  endloop
endfacet
facet normal -0.38268343236511093 0.923879532511278 -0.0
  outer loop
    vertex 168.1391429999999 42.868911086754565 -8.459899447643684e-15
    vertex 167.2950096578587 42.51925960798834 2.3999999999999475
    vertex 168.1391429999999 42.868911086754565 2.3999999999999475
  endloop
endfacet
facet normal 0.7933533402912234 -0.6087614290087361 -0.0
  outer loop
    vertex 163.914269265847 48.374873734153006 -8.459899447643684e-15
    vertex 163.35805408675435 47.65000000000009 2.3999999999999475
    vertex 163.35805408675435 47.65000000000009 -8.459899447643684e-15
  endloop
endfacet
facet normal 0.7933533402912234 -0.6087614290087361 -0.0
  outer loop
    vertex 163.35805408675435 47.65000000000009 2.3999999999999475
    vertex 163.914269265847 48.374873734153006 -8.459899447643684e-15
    vertex 163.914269265847 48.374873734153006 2.3999999999999475
  endloop
endfacet
facet normal 0.6087614290087325 -0.7933533402912261 0.0
  outer loop
    vertex 164.6391429999999 48.931088913245624 2.3999999999999475
    vertex 163.914269265847 48.374873734153006 -8.459899447643684e-15
    vertex 164.6391429999999 48.931088913245624 -8.459899447643684e-15
  endloop
endfacet
facet normal 0.6087614290087325 -0.7933533402912261 0.0
  outer loop
    vertex 163.914269265847 48.374873734153006 -8.459899447643684e-15
    vertex 164.6391429999999 48.931088913245624 2.3999999999999475
    vertex 163.914269265847 48.374873734153006 2.3999999999999475
  endloop
endfacet
facet normal 0.1305261922200364 -0.9914448613738125 0.0
  outer loop
    vertex 166.3891429999999 49.40000000000008 2.3999999999999475
    vertex 165.48327634214107 49.28074039201183 -8.459899447643684e-15
    vertex 166.3891429999999 49.40000000000008 -8.459899447643684e-15
  endloop
endfacet
facet normal 0.1305261922200364 -0.9914448613738125 0.0
  outer loop
    vertex 165.48327634214107 49.28074039201183 -8.459899447643684e-15
    vertex 166.3891429999999 49.40000000000008 2.3999999999999475
    vertex 165.48327634214107 49.28074039201183 2.3999999999999475
  endloop
endfacet
facet normal -0.6087614290086694 0.7933533402912747 -0.0
  outer loop
    vertex 168.1391429999999 42.868911086754565 2.3999999999999475
    vertex 168.8640167341529 43.42512626584716 -8.459899447643684e-15
    vertex 168.1391429999999 42.868911086754565 -8.459899447643684e-15
  endloop
endfacet
facet normal -0.6087614290086694 0.7933533402912747 -0.0
  outer loop
    vertex 168.8640167341529 43.42512626584716 -8.459899447643684e-15
    vertex 168.1391429999999 42.868911086754565 2.3999999999999475
    vertex 168.8640167341529 43.42512626584716 2.3999999999999475
  endloop
endfacet
facet normal -0.1305261922200364 0.9914448613738125 -0.0
  outer loop
    vertex 166.3891429999999 42.40000000000009 2.3999999999999475
    vertex 167.2950096578587 42.51925960798834 -8.459899447643684e-15
    vertex 166.3891429999999 42.40000000000009 -8.459899447643684e-15
  endloop
endfacet
facet normal -0.1305261922200364 0.9914448613738125 -0.0
  outer loop
    vertex 167.2950096578587 42.51925960798834 -8.459899447643684e-15
    vertex 166.3891429999999 42.40000000000009 2.3999999999999475
    vertex 167.2950096578587 42.51925960798834 2.3999999999999475
  endloop
endfacet
facet normal 0.13052619222003642 0.9914448613738125 -0.0
  outer loop
    vertex 165.48327634214107 42.51925960798834 2.3999999999999475
    vertex 166.3891429999999 42.40000000000009 -8.459899447643684e-15
    vertex 165.48327634214107 42.51925960798834 -8.459899447643684e-15
  endloop
endfacet
facet normal 0.13052619222003642 0.9914448613738125 -0.0
  outer loop
    vertex 166.3891429999999 42.40000000000009 -8.459899447643684e-15
    vertex 165.48327634214107 42.51925960798834 2.3999999999999475
    vertex 166.3891429999999 42.40000000000009 2.3999999999999475
  endloop
endfacet
facet normal -1.0 0.0 0.0
  outer loop
    vertex 181.88914299999993 72.40000000000008 2.399999999999976
    vertex 181.88914299999993 57.90000000000008 -1.4099832412739482e-14
    vertex 181.88914299999993 57.90000000000008 2.399999999999976
  endloop
endfacet
facet normal -1.0 0.0 0.0
  outer loop
    vertex 181.88914299999993 57.90000000000008 -1.4099832412739482e-14
    vertex 181.88914299999993 72.40000000000008 2.399999999999976
    vertex 181.88914299999993 72.40000000000008 -1.4099832412739482e-14
  endloop
endfacet
facet normal -0.991444861373812 -0.13052619222003958 0.0
  outer loop
    vertex 169.7698833920117 46.80586665785891 2.399999999999942
    vertex 169.88914299999996 45.900000000000105 -1.4099832412739482e-14
    vertex 169.88914299999996 45.900000000000105 2.399999999999942
  endloop
endfacet
facet normal -0.991444861373812 -0.13052619222003958 0.0
  outer loop
    vertex 169.88914299999996 45.900000000000105 -1.4099832412739482e-14
    vertex 169.7698833920117 46.80586665785891 2.399999999999942
    vertex 169.7698833920117 46.80586665785891 -1.4099832412739482e-14
  endloop
endfacet
facet normal -0.923879532511278 0.38268343236511093 0.0
  outer loop
    vertex 169.7698833920117 44.99413334214128 2.399999999999942
    vertex 169.4202319132455 44.1500000000001 -1.4099832412739482e-14
    vertex 169.4202319132455 44.1500000000001 2.399999999999942
  endloop
endfacet
facet normal -0.923879532511278 0.38268343236511093 0.0
  outer loop
    vertex 169.4202319132455 44.1500000000001 -1.4099832412739482e-14
    vertex 169.7698833920117 44.99413334214128 2.399999999999942
    vertex 169.7698833920117 44.99413334214128 -1.4099832412739482e-14
  endloop
endfacet
facet normal 1.0 -0.0 -0.0
  outer loop
    vertex 159.13914299999993 33.900000000000084 -8.459899447643684e-15
    vertex 159.13914299999993 24.900000000000095 2.39999999999997
    vertex 159.13914299999993 24.900000000000095 -8.459899447643684e-15
  endloop
endfacet
facet normal 1.0 -0.0 -0.0
  outer loop
    vertex 159.13914299999993 24.900000000000095 2.39999999999997
    vertex 159.13914299999993 33.900000000000084 -8.459899447643684e-15
    vertex 159.13914299999993 33.900000000000084 2.39999999999997
  endloop
endfacet
facet normal -0.6087614290086848 -0.7933533402912626 0.0
  outer loop
    vertex 168.8640167341529 48.374873734153006 2.3999999999999475
    vertex 168.1391429999999 48.931088913245624 -8.459899447643684e-15
    vertex 168.8640167341529 48.374873734153006 -8.459899447643684e-15
  endloop
endfacet
facet normal -0.6087614290086848 -0.7933533402912626 0.0
  outer loop
    vertex 168.1391429999999 48.931088913245624 -8.459899447643684e-15
    vertex 168.8640167341529 48.374873734153006 2.3999999999999475
    vertex 168.1391429999999 48.931088913245624 2.3999999999999475
  endloop
endfacet
facet normal 0.0 -1.0 0.0
  outer loop
    vertex 173.63914299999996 33.900000000000084 2.3999999999999644
    vertex 159.13914299999993 33.900000000000084 -8.459899447643684e-15
    vertex 173.63914299999996 33.900000000000084 -1.4099832412739482e-14
  endloop
endfacet
facet normal 0.0 -1.0 0.0
  outer loop
    vertex 159.13914299999993 33.900000000000084 -8.459899447643684e-15
    vertex 173.63914299999996 33.900000000000084 2.3999999999999644
    vertex 159.13914299999993 33.900000000000084 2.39999999999997
  endloop
endfacet
facet normal 0.9238795325112954 0.3826834323650689 -0.0
  outer loop
    vertex 163.0084026079882 44.99413334214128 -8.459899447643684e-15
    vertex 163.35805408675435 44.1500000000001 2.3999999999999475
    vertex 163.35805408675435 44.1500000000001 -8.459899447643684e-15
  endloop
endfacet
facet normal 0.9238795325112954 0.3826834323650689 -0.0
  outer loop
    vertex 163.35805408675435 44.1500000000001 2.3999999999999475
    vertex 163.0084026079882 44.99413334214128 -8.459899447643684e-15
    vertex 163.0084026079882 44.99413334214128 2.3999999999999475
  endloop
endfacet
facet normal 0.38268343236511093 0.923879532511278 -0.0
  outer loop
    vertex 164.6391429999999 42.868911086754565 2.3999999999999475
    vertex 165.48327634214107 42.51925960798834 -8.459899447643684e-15
    vertex 164.6391429999999 42.868911086754565 -8.459899447643684e-15
  endloop
endfacet
facet normal 0.38268343236511093 0.923879532511278 -0.0
  outer loop
    vertex 165.48327634214107 42.51925960798834 -8.459899447643684e-15
    vertex 164.6391429999999 42.868911086754565 2.3999999999999475
    vertex 165.48327634214107 42.51925960798834 2.3999999999999475
  endloop
endfacet
facet normal -0.7933533402912564 0.6087614290086931 4.865006394710135e-18
  outer loop
    vertex 169.4202319132455 44.1500000000001 2.399999999999942
    vertex 168.8640167341529 43.42512626584716 -8.459899447643684e-15
    vertex 168.8640167341529 43.42512626584716 2.3999999999999475
  endloop
endfacet
facet normal -0.7933533402912564 0.6087614290086931 4.865006394710135e-18
  outer loop
    vertex 168.8640167341529 43.42512626584716 -8.459899447643684e-15
    vertex 169.4202319132455 44.1500000000001 2.399999999999942
    vertex 169.4202319132455 44.1500000000001 -1.4099832412739482e-14
  endloop
endfacet
facet normal 0.9238795325112954 -0.3826834323650688 -0.0
  outer loop
    vertex 163.35805408675435 47.65000000000009 -8.459899447643684e-15
    vertex 163.0084026079882 46.80586665785891 2.3999999999999475
    vertex 163.0084026079882 46.80586665785891 -8.459899447643684e-15
  endloop
endfacet
facet normal 0.9238795325112954 -0.3826834323650688 -0.0
  outer loop
    vertex 163.0084026079882 46.80586665785891 2.3999999999999475
    vertex 163.35805408675435 47.65000000000009 -8.459899447643684e-15
    vertex 163.35805408675435 47.65000000000009 2.3999999999999475
  endloop
endfacet
facet normal -1.0 0.0 0.0
  outer loop
    vertex 173.63914299999996 33.900000000000084 2.3999999999999644
    vertex 173.63914299999996 24.900000000000095 -1.4099832412739482e-14
    vertex 173.63914299999996 24.900000000000095 2.3999999999999644
  endloop
endfacet
facet normal -1.0 0.0 0.0
  outer loop
    vertex 173.63914299999996 24.900000000000095 -1.4099832412739482e-14
    vertex 173.63914299999996 33.900000000000084 2.3999999999999644
    vertex 173.63914299999996 33.900000000000084 -1.4099832412739482e-14
  endloop
endfacet
facet normal -0.3826834323650899 -0.9238795325112867 0.0
  outer loop
    vertex 168.1391429999999 48.931088913245624 2.3999999999999475
    vertex 167.2950096578587 49.28074039201183 -8.459899447643684e-15
    vertex 168.1391429999999 48.931088913245624 -8.459899447643684e-15
  endloop
endfacet
facet normal -0.3826834323650899 -0.9238795325112867 0.0
  outer loop
    vertex 167.2950096578587 49.28074039201183 -8.459899447643684e-15
    vertex 168.1391429999999 48.931088913245624 2.3999999999999475
    vertex 167.2950096578587 49.28074039201183 2.3999999999999475
  endloop
endfacet
endsolid Darkroom Timer
