solid Darkroom Timer
facet normal 1.0 -0.0 -0.0
  outer loop
    vertex 83.4 83.39999999999998 -8.459899447643692e-15
    vertex 83.4 0.0 31.20000000000002
    vertex 83.4 0.0 -8.459899447643692e-15
  endloop
endfacet
facet normal 1.0 -0.0 -0.0
  outer loop
    vertex 83.4 0.0 31.20000000000002
    vertex 83.4 83.39999999999998 -8.459899447643692e-15
    vertex 83.4 83.39999999999998 31.20000000000002
  endloop
endfacet
facet normal -1.0 0.0 0.0
  outer loop
    vertex 82.20000000000003 79.19999999999999 31.20000000000002
    vertex 82.20000000000003 4.1999999999999975 1.1999999999999837
    vertex 82.20000000000003 4.1999999999999975 31.20000000000002
  endloop
endfacet
facet normal -1.0 0.0 0.0
  outer loop
    vertex 82.20000000000003 4.1999999999999975 1.1999999999999837
    vertex 82.20000000000003 79.19999999999999 31.20000000000002
    vertex 82.20000000000003 79.19999999999999 1.1999999999999724
  endloop
endfacet
facet normal -1.0 0.0 0.0
  outer loop
    vertex 79.20000000000002 82.19999999999999 31.20000000000002
    vertex 79.20000000000002 79.19999999999999 1.1999999999999724
    vertex 79.20000000000002 79.19999999999999 31.20000000000002
  endloop
endfacet
facet normal -1.0 0.0 0.0
  outer loop
    vertex 79.20000000000002 79.19999999999999 1.1999999999999724
    vertex 79.20000000000002 82.19999999999999 31.20000000000002
    vertex 79.20000000000002 82.19999999999999 1.1999999999999724
  endloop
endfacet
facet normal 0.0 -1.0 0.0
  outer loop
    vertex 82.20000000000003 79.19999999999999 31.20000000000002
    vertex 79.20000000000002 79.19999999999999 1.1999999999999724
    vertex 82.20000000000003 79.19999999999999 1.1999999999999724
  endloop
endfacet
facet normal 0.0 -1.0 0.0
  outer loop
    vertex 79.20000000000002 79.19999999999999 1.1999999999999724
    vertex 82.20000000000003 79.19999999999999 31.20000000000002
    vertex 79.20000000000002 79.19999999999999 31.20000000000002
  endloop
endfacet
facet normal 9.399888275159606e-16 1.0 6.64443507465055e-47
  outer loop
    vertex 79.20000000000002 4.200000000000001 31.20000000000002
    vertex 82.20000000000003 4.1999999999999975 1.1999999999999837
    vertex 79.20000000000002 4.200000000000001 1.1999999999999837
  endloop
endfacet
facet normal 9.399888275159606e-16 1.0 6.64443507465055e-47
  outer loop
    vertex 82.20000000000003 4.1999999999999975 1.1999999999999837
    vertex 79.20000000000002 4.200000000000001 31.20000000000002
    vertex 82.20000000000003 4.1999999999999975 31.20000000000002
  endloop
endfacet
facet normal -1.0 0.0 0.0
  outer loop
    vertex 79.20000000000002 4.200000000000001 31.20000000000002
    vertex 79.20000000000002 1.1999999999999977 1.1999999999999837
    vertex 79.20000000000002 1.1999999999999977 31.20000000000002
  endloop
endfacet
facet normal -1.0 0.0 0.0
  outer loop
    vertex 79.20000000000002 1.1999999999999977 1.1999999999999837
    vertex 79.20000000000002 4.200000000000001 31.20000000000002
    vertex 79.20000000000002 4.200000000000001 1.1999999999999837
  endloop
endfacet
facet normal -3.4707279785204883e-16 -1.0 -1.6638472168097184e-32
  outer loop
    vertex 79.20000000000002 82.19999999999999 31.20000000000002
    vertex 14.199999999999989 82.2 1.1999999999999862
    vertex 79.20000000000002 82.19999999999999 1.1999999999999724
  endloop
endfacet
facet normal -3.4707279785204883e-16 -1.0 -1.6638472168097184e-32
  outer loop
    vertex 14.199999999999989 82.2 1.1999999999999862
    vertex 79.20000000000002 82.19999999999999 31.20000000000002
    vertex 14.199999999999989 82.2 31.20000000000002
  endloop
endfacet
facet normal 1.0 -0.0 -0.0
  outer loop
    vertex 4.199999999999992 83.39999999999998 1.1999999999999837
    vertex 4.199999999999992 82.2 31.200000000000028
    vertex 4.199999999999992 82.2 1.1999999999999864
  endloop
endfacet
facet normal 1.0 -0.0 -0.0
  outer loop
    vertex 4.199999999999992 82.2 31.200000000000028
    vertex 4.199999999999992 83.39999999999998 1.1999999999999837
    vertex 4.199999999999992 83.39999999999998 31.200000000000028
  endloop
endfacet
facet normal -0.0 1.0 -0.0
  outer loop
    vertex 4.199999999999992 1.1999999999999977 31.200000000000028
    vertex 79.20000000000002 1.1999999999999977 1.1999999999999837
    vertex 4.199999999999992 1.1999999999999977 1.1999999999999837
  endloop
endfacet
facet normal -0.0 1.0 -0.0
  outer loop
    vertex 79.20000000000002 1.1999999999999977 1.1999999999999837
    vertex 4.199999999999992 1.1999999999999977 31.200000000000028
    vertex 79.20000000000002 1.1999999999999977 31.20000000000002
  endloop
endfacet
facet normal 1.0 -0.0 -0.0
  outer loop
    vertex 4.199999999999992 4.200000000000001 1.1999999999999837
    vertex 4.199999999999992 1.1999999999999977 31.200000000000028
    vertex 4.199999999999992 1.1999999999999977 1.1999999999999837
  endloop
endfacet
facet normal 1.0 -0.0 -0.0
  outer loop
    vertex 4.199999999999992 1.1999999999999977 31.200000000000028
    vertex 4.199999999999992 4.200000000000001 1.1999999999999837
    vertex 4.199999999999992 4.200000000000001 31.200000000000028
  endloop
endfacet
facet normal -0.0 1.0 -0.0
  outer loop
    vertex -1.127986593019159e-14 83.39999999999998 31.200000000000028
    vertex 4.199999999999992 83.39999999999998 1.1999999999999837
    vertex -1.127986593019159e-14 83.39999999999998 0.0
  endloop
endfacet
facet normal -0.0 1.0 -0.0
  outer loop
    vertex 4.199999999999992 83.39999999999998 1.1999999999999837
    vertex -1.127986593019159e-14 83.39999999999998 31.200000000000028
    vertex 4.199999999999992 83.39999999999998 31.200000000000028
  endloop
endfacet
facet normal -0.0 1.0 -0.0
  outer loop
    vertex 83.4 83.39999999999998 -8.459899447643692e-15
    vertex 14.199999999999994 83.39999999999998 1.1999999999999837
    vertex 83.4 83.39999999999998 31.20000000000002
  endloop
endfacet
facet normal -0.0 1.0 -0.0
  outer loop
    vertex 14.199999999999994 83.39999999999998 1.1999999999999837
    vertex 83.4 83.39999999999998 -8.459899447643692e-15
    vertex -1.127986593019159e-14 83.39999999999998 0.0
  endloop
endfacet
facet normal -0.0 1.0 -0.0
  outer loop
    vertex 14.199999999999994 83.39999999999998 1.1999999999999837
    vertex -1.127986593019159e-14 83.39999999999998 0.0
    vertex 4.199999999999992 83.39999999999998 1.1999999999999837
  endloop
endfacet
facet normal -0.0 1.0 -0.0
  outer loop
    vertex 83.4 83.39999999999998 31.20000000000002
    vertex 14.199999999999994 83.39999999999998 1.1999999999999837
    vertex 14.199999999999994 83.39999999999998 31.20000000000002
  endloop
endfacet
facet normal 6.504124722248279e-17 1.0500555141312384e-17 1.0
  outer loop
    vertex -1.127986593019159e-14 83.39999999999998 31.200000000000028
    vertex 1.1999999999999922 79.19999999999999 31.200000000000028
    vertex 4.199999999999992 83.39999999999998 31.200000000000028
  endloop
endfacet
facet normal 6.504124722248279e-17 1.0500555141312384e-17 1.0
  outer loop
    vertex 1.1999999999999922 79.19999999999999 31.200000000000028
    vertex -1.127986593019159e-14 83.39999999999998 31.200000000000028
    vertex 0.0 0.0 31.200000000000028
  endloop
endfacet
facet normal 6.504124722248279e-17 1.0500555141312384e-17 1.0
  outer loop
    vertex 1.1999999999999922 79.19999999999999 31.200000000000028
    vertex 0.0 0.0 31.200000000000028
    vertex 1.1999999999999922 4.1999999999999975 31.200000000000028
  endloop
endfacet
facet normal 6.504124722248279e-17 1.0500555141312384e-17 1.0
  outer loop
    vertex 4.199999999999992 83.39999999999998 31.200000000000028
    vertex 1.1999999999999922 79.19999999999999 31.200000000000028
    vertex 4.199999999999992 79.19999999999999 31.200000000000028
  endloop
endfacet
facet normal 6.504124722248279e-17 1.0500555141312384e-17 1.0
  outer loop
    vertex 4.199999999999992 83.39999999999998 31.200000000000028
    vertex 4.199999999999992 79.19999999999999 31.200000000000028
    vertex 4.199999999999992 82.2 31.200000000000028
  endloop
endfacet
facet normal 6.504124722248279e-17 1.0500555141312384e-17 1.0
  outer loop
    vertex 82.20000000000003 79.19999999999999 31.20000000000002
    vertex 79.20000000000002 82.19999999999999 31.20000000000002
    vertex 79.20000000000002 79.19999999999999 31.20000000000002
  endloop
endfacet
facet normal 6.504124722248279e-17 1.0500555141312384e-17 1.0
  outer loop
    vertex 0.0 0.0 31.200000000000028
    vertex 4.199999999999992 1.1999999999999977 31.200000000000028
    vertex 1.1999999999999922 4.1999999999999975 31.200000000000028
  endloop
endfacet
facet normal 6.504124722248279e-17 1.0500555141312384e-17 1.0
  outer loop
    vertex 4.199999999999992 1.1999999999999977 31.200000000000028
    vertex 0.0 0.0 31.200000000000028
    vertex 83.4 0.0 31.20000000000002
  endloop
endfacet
facet normal 6.504124722248279e-17 1.0500555141312384e-17 1.0
  outer loop
    vertex 4.199999999999992 1.1999999999999977 31.200000000000028
    vertex 83.4 0.0 31.20000000000002
    vertex 79.20000000000002 1.1999999999999977 31.20000000000002
  endloop
endfacet
facet normal 6.504124722248279e-17 1.0500555141312384e-17 1.0
  outer loop
    vertex 79.20000000000002 1.1999999999999977 31.20000000000002
    vertex 83.4 0.0 31.20000000000002
    vertex 79.20000000000002 4.200000000000001 31.20000000000002
  endloop
endfacet
facet normal 6.504124722248279e-17 1.0500555141312384e-17 1.0
  outer loop
    vertex 79.20000000000002 4.200000000000001 31.20000000000002
    vertex 83.4 0.0 31.20000000000002
    vertex 82.20000000000003 4.1999999999999975 31.20000000000002
  endloop
endfacet
facet normal 6.504124722248279e-17 1.0500555141312384e-17 1.0
  outer loop
    vertex 82.20000000000003 4.1999999999999975 31.20000000000002
    vertex 83.4 0.0 31.20000000000002
    vertex 82.20000000000003 79.19999999999999 31.20000000000002
  endloop
endfacet
facet normal 6.504124722248279e-17 1.0500555141312384e-17 1.0
  outer loop
    vertex 79.20000000000002 82.19999999999999 31.20000000000002
    vertex 14.199999999999994 83.39999999999998 31.20000000000002
    vertex 14.199999999999989 82.2 31.20000000000002
  endloop
endfacet
facet normal 6.504124722248279e-17 1.0500555141312384e-17 1.0
  outer loop
    vertex 14.199999999999994 83.39999999999998 31.20000000000002
    vertex 79.20000000000002 82.19999999999999 31.20000000000002
    vertex 83.4 83.39999999999998 31.20000000000002
  endloop
endfacet
facet normal 6.504124722248279e-17 1.0500555141312384e-17 1.0
  outer loop
    vertex 83.4 83.39999999999998 31.20000000000002
    vertex 79.20000000000002 82.19999999999999 31.20000000000002
    vertex 82.20000000000003 79.19999999999999 31.20000000000002
  endloop
endfacet
facet normal 6.504124722248279e-17 1.0500555141312384e-17 1.0
  outer loop
    vertex 83.4 83.39999999999998 31.20000000000002
    vertex 82.20000000000003 79.19999999999999 31.20000000000002
    vertex 83.4 0.0 31.20000000000002
  endloop
endfacet
facet normal 6.504124722248279e-17 1.0500555141312384e-17 1.0
  outer loop
    vertex 4.199999999999992 4.200000000000001 31.200000000000028
    vertex 1.1999999999999922 4.1999999999999975 31.200000000000028
    vertex 4.199999999999992 1.1999999999999977 31.200000000000028
  endloop
endfacet
facet normal 1.0 -0.0 -0.0
  outer loop
    vertex 1.1999999999999922 79.19999999999999 1.1999999999999864
    vertex 1.1999999999999922 4.1999999999999975 31.200000000000028
    vertex 1.1999999999999922 4.1999999999999975 1.1999999999999837
  endloop
endfacet
facet normal 1.0 -0.0 -0.0
  outer loop
    vertex 1.1999999999999922 4.1999999999999975 31.200000000000028
    vertex 1.1999999999999922 79.19999999999999 1.1999999999999864
    vertex 1.1999999999999922 79.19999999999999 31.200000000000028
  endloop
endfacet
facet normal 0.0 -1.0 0.0
  outer loop
    vertex 4.199999999999992 79.19999999999999 31.200000000000028
    vertex 1.1999999999999922 79.19999999999999 1.1999999999999864
    vertex 4.199999999999992 79.19999999999999 1.1999999999999864
  endloop
endfacet
facet normal 0.0 -1.0 0.0
  outer loop
    vertex 1.1999999999999922 79.19999999999999 1.1999999999999864
    vertex 4.199999999999992 79.19999999999999 31.200000000000028
    vertex 1.1999999999999922 79.19999999999999 31.200000000000028
  endloop
endfacet
facet normal -9.399888275159659e-16 1.0 -0.0
  outer loop
    vertex 1.1999999999999922 4.1999999999999975 31.200000000000028
    vertex 4.199999999999992 4.200000000000001 1.1999999999999837
    vertex 1.1999999999999922 4.1999999999999975 1.1999999999999837
  endloop
endfacet
facet normal -9.399888275159659e-16 1.0 -0.0
  outer loop
    vertex 4.199999999999992 4.200000000000001 1.1999999999999837
    vertex 1.1999999999999922 4.1999999999999975 31.200000000000028
    vertex 4.199999999999992 4.200000000000001 31.200000000000028
  endloop
endfacet
facet normal 1.0 -0.0 -0.0
  outer loop
    vertex 4.199999999999992 82.2 1.1999999999999864
    vertex 4.199999999999992 79.19999999999999 31.200000000000028
    vertex 4.199999999999992 79.19999999999999 1.1999999999999864
  endloop
endfacet
facet normal 1.0 -0.0 -0.0
  outer loop
    vertex 4.199999999999992 79.19999999999999 31.200000000000028
    vertex 4.199999999999992 82.2 1.1999999999999864
    vertex 4.199999999999992 82.2 31.200000000000028
  endloop
endfacet
facet normal -1.0143764325711859e-16 -8.35669783938561e-33 -1.0
  outer loop
    vertex 83.4 83.39999999999998 -8.459899447643692e-15
    vertex 0.0 0.0 0.0
    vertex -1.127986593019159e-14 83.39999999999998 0.0
  endloop
endfacet
facet normal -1.0143764325711859e-16 -8.35669783938561e-33 -1.0
  outer loop
    vertex 0.0 0.0 0.0
    vertex 83.4 83.39999999999998 -8.459899447643692e-15
    vertex 83.4 0.0 -8.459899447643692e-15
  endloop
endfacet
facet normal 0.0 -1.0 0.0
  outer loop
    vertex 83.4 0.0 31.20000000000002
    vertex 0.0 0.0 0.0
    vertex 83.4 0.0 -8.459899447643692e-15
  endloop
endfacet
facet normal 0.0 -1.0 0.0
  outer loop
    vertex 0.0 0.0 0.0
    vertex 83.4 0.0 31.20000000000002
    vertex 0.0 0.0 31.200000000000028
  endloop
endfacet
facet normal -1.0 -1.3525019100949151e-16 0.0
  outer loop
    vertex -1.127986593019159e-14 83.39999999999998 31.200000000000028
    vertex 0.0 0.0 0.0
    vertex 0.0 0.0 31.200000000000028
  endloop
endfacet
facet normal -1.0 -1.3525019100949151e-16 0.0
  outer loop
    vertex 0.0 0.0 0.0
    vertex -1.127986593019159e-14 83.39999999999998 31.200000000000028
    vertex -1.127986593019159e-14 83.39999999999998 0.0
  endloop
endfacet
facet normal 9.800317988389775e-17 4.509529220717935e-17 1.0
  outer loop
    vertex 4.199999999999992 4.200000000000001 1.1999999999999837
    vertex 1.1999999999999922 79.19999999999999 1.1999999999999864
    vertex 1.1999999999999922 4.1999999999999975 1.1999999999999837
  endloop
endfacet
facet normal 9.800317988389775e-17 4.509529220717935e-17 1.0
  outer loop
    vertex 1.1999999999999922 79.19999999999999 1.1999999999999864
    vertex 4.199999999999992 4.200000000000001 1.1999999999999837
    vertex 4.199999999999992 79.19999999999999 1.1999999999999864
  endloop
endfacet
facet normal 9.800317988389775e-17 4.509529220717935e-17 1.0
  outer loop
    vertex 82.20000000000003 4.1999999999999975 1.1999999999999837
    vertex 79.20000000000002 79.19999999999999 1.1999999999999724
    vertex 79.20000000000002 4.200000000000001 1.1999999999999837
  endloop
endfacet
facet normal 9.800317988389775e-17 4.509529220717935e-17 1.0
  outer loop
    vertex 79.20000000000002 79.19999999999999 1.1999999999999724
    vertex 82.20000000000003 4.1999999999999975 1.1999999999999837
    vertex 82.20000000000003 79.19999999999999 1.1999999999999724
  endloop
endfacet
facet normal 9.800317988389775e-17 4.509529220717935e-17 1.0
  outer loop
    vertex 79.20000000000002 1.1999999999999977 1.1999999999999837
    vertex 4.199999999999992 4.200000000000001 1.1999999999999837
    vertex 4.199999999999992 1.1999999999999977 1.1999999999999837
  endloop
endfacet
facet normal 9.800317988389775e-17 4.509529220717935e-17 1.0
  outer loop
    vertex 4.199999999999992 4.200000000000001 1.1999999999999837
    vertex 79.20000000000002 1.1999999999999977 1.1999999999999837
    vertex 4.199999999999992 79.19999999999999 1.1999999999999864
  endloop
endfacet
facet normal 9.800317988389775e-17 4.509529220717935e-17 1.0
  outer loop
    vertex 4.199999999999992 79.19999999999999 1.1999999999999864
    vertex 79.20000000000002 1.1999999999999977 1.1999999999999837
    vertex 4.199999999999992 82.2 1.1999999999999864
  endloop
endfacet
facet normal 9.800317988389775e-17 4.509529220717935e-17 1.0
  outer loop
    vertex 4.199999999999992 82.2 1.1999999999999864
    vertex 79.20000000000002 1.1999999999999977 1.1999999999999837
    vertex 4.199999999999992 83.39999999999998 1.1999999999999837
  endloop
endfacet
facet normal 9.800317988389775e-17 4.509529220717935e-17 1.0
  outer loop
    vertex 4.199999999999992 83.39999999999998 1.1999999999999837
    vertex 79.20000000000002 1.1999999999999977 1.1999999999999837
    vertex 14.199999999999989 82.2 1.1999999999999862
  endloop
endfacet
facet normal 9.800317988389775e-17 4.509529220717935e-17 1.0
  outer loop
    vertex 14.199999999999989 82.2 1.1999999999999862
    vertex 79.20000000000002 1.1999999999999977 1.1999999999999837
    vertex 79.20000000000002 82.19999999999999 1.1999999999999724
  endloop
endfacet
facet normal 9.800317988389775e-17 4.509529220717935e-17 1.0
  outer loop
    vertex 79.20000000000002 82.19999999999999 1.1999999999999724
    vertex 79.20000000000002 1.1999999999999977 1.1999999999999837
    vertex 79.20000000000002 4.200000000000001 1.1999999999999837
  endloop
endfacet
facet normal 9.800317988389775e-17 4.509529220717935e-17 1.0
  outer loop
    vertex 79.20000000000002 82.19999999999999 1.1999999999999724
    vertex 79.20000000000002 4.200000000000001 1.1999999999999837
    vertex 79.20000000000002 79.19999999999999 1.1999999999999724
  endloop
endfacet
facet normal 9.800317988389775e-17 4.509529220717935e-17 1.0
  outer loop
    vertex 14.199999999999994 83.39999999999998 1.1999999999999837
    vertex 4.199999999999992 83.39999999999998 1.1999999999999837
    vertex 14.199999999999989 82.2 1.1999999999999862
  endloop
endfacet
facet normal -1.0 4.699944137579926e-15 2.853223840781321e-33
  outer loop
    vertex 14.199999999999994 83.39999999999998 31.20000000000002
    vertex 14.199999999999989 82.2 1.1999999999999862
    vertex 14.199999999999989 82.2 31.20000000000002
  endloop
endfacet
facet normal -1.0 4.699944137579926e-15 2.853223840781321e-33
  outer loop
    vertex 14.199999999999989 82.2 1.1999999999999862
    vertex 14.199999999999994 83.39999999999998 31.20000000000002
    vertex 14.199999999999994 83.39999999999998 1.1999999999999837
  endloop
endfacet
endsolid Darkroom Timer
